<svg width="160" height="160" viewBox="0 0 160 160" fill="none" xmlns="http://www.w3.org/2000/svg">
<g clip-path="url(#clip0_168_227)">
<mask id="mask0_168_227" style="mask-type:luminance" maskUnits="userSpaceOnUse" x="0" y="0" width="160" height="160">
<path d="M0 0H160V160H0V0Z" fill="white"/>
</mask>
<g mask="url(#mask0_168_227)">
<mask id="mask1_168_227" style="mask-type:luminance" maskUnits="userSpaceOnUse" x="0" y="0" width="160" height="160">
<path d="M0 0H160V160H0V0Z" fill="white"/>
</mask>
<g mask="url(#mask1_168_227)">
<path d="M79.8139 142.512C114.235 142.512 142.139 114.608 142.139 80.1859C142.139 45.7644 114.235 17.8604 79.8139 17.8604C45.3923 17.8604 17.4883 45.7644 17.4883 80.1859C17.4883 114.608 45.3923 142.512 79.8139 142.512Z" fill="#F1F1EF"/>
<g style="mix-blend-mode:multiply" opacity="0.5">
<path d="M89.5429 141.729C98.2545 140.383 106.583 137.208 113.979 132.413C103.216 136.244 91.6087 137.051 80.4191 134.745C69.2296 132.439 58.8867 127.109 50.5156 119.334C42.1445 111.559 36.0657 101.637 32.9407 90.6483C29.8156 79.6594 29.764 68.0238 32.7912 57.0075C36.8471 42.2473 46.1809 29.4899 59.0212 21.1567C46.5081 25.6182 35.7432 33.9527 28.2901 44.9498C20.8371 55.9468 17.0841 69.0336 17.5764 82.3091C17.9027 91.1182 20.0897 99.7585 23.9938 107.662C27.8979 115.565 33.4306 122.553 40.2281 128.166C47.0257 133.778 54.9341 137.888 63.4336 140.226C71.9332 142.564 80.8312 143.076 89.5429 141.729Z" fill="#F1F1EF"/>
</g>
<path d="M142.325 79.9999C142.325 114.397 114.397 142.325 79.9999 142.325C45.6025 142.325 17.6743 114.397 17.6743 79.9999C17.6743 45.6025 45.6025 17.6743 79.9999 17.6743C114.397 17.6743 142.325 45.6025 142.325 79.9999Z" stroke="#2F414F" stroke-width="7"/>
<path d="M89.3022 42.7906C89.6876 42.7906 89.9998 43.1028 89.9998 43.4883V70.2325H116.511C116.897 70.2325 117.209 70.5447 117.209 70.9302V89.3023C117.209 89.3939 117.191 89.4847 117.156 89.5693C117.121 89.654 117.07 89.7309 117.005 89.7957C116.94 89.8605 116.863 89.9119 116.779 89.9469C116.694 89.982 116.603 90 116.511 90H89.9998V116.512C89.9999 116.603 89.9819 116.694 89.9468 116.779C89.9118 116.863 89.8604 116.94 89.7956 117.005C89.7308 117.07 89.6539 117.121 89.5692 117.156C89.4845 117.191 89.3938 117.209 89.3022 117.209H70.9301C70.8384 117.209 70.7477 117.191 70.663 117.156C70.5783 117.121 70.5014 117.07 70.4366 117.005C70.3718 116.94 70.3204 116.863 70.2854 116.779C70.2504 116.694 70.2323 116.603 70.2324 116.512V90H43.4882C43.3966 90 43.3058 89.982 43.2212 89.9469C43.1365 89.9119 43.0596 89.8605 42.9948 89.7957C42.93 89.7309 42.8786 89.654 42.8435 89.5693C42.8085 89.4847 42.7905 89.3939 42.7905 89.3023V70.9302C42.7905 70.5447 43.1027 70.2325 43.4882 70.2325H70.2324V43.4883C70.2324 43.1028 70.5446 42.7906 70.9301 42.7906H89.3022Z" fill="#3894A3"/>
<g style="mix-blend-mode:multiply">
<path d="M79.6279 8.93018V152.93H43.907V8.93018H79.6279Z" fill="white"/>
</g>
<path d="M89.3022 42.7906C89.6876 42.7906 89.9998 43.1028 89.9998 43.4883V70.2325H116.511C116.897 70.2325 117.209 70.5447 117.209 70.9302V89.3023C117.209 89.3939 117.191 89.4847 117.156 89.5693C117.121 89.654 117.07 89.7309 117.005 89.7957C116.94 89.8605 116.863 89.9119 116.779 89.9469C116.694 89.982 116.603 90 116.511 90H89.9998V116.512C89.9999 116.603 89.9819 116.694 89.9468 116.779C89.9118 116.863 89.8604 116.94 89.7956 117.005C89.7308 117.07 89.6539 117.121 89.5692 117.156C89.4845 117.191 89.3938 117.209 89.3022 117.209H70.9301C70.8384 117.209 70.7477 117.191 70.663 117.156C70.5783 117.121 70.5014 117.07 70.4366 117.005C70.3718 116.94 70.3204 116.863 70.2854 116.779C70.2504 116.694 70.2323 116.603 70.2324 116.512V90H43.4882C43.3966 90 43.3058 89.982 43.2212 89.9469C43.1365 89.9119 43.0596 89.8605 42.9948 89.7957C42.93 89.7309 42.8786 89.654 42.8435 89.5693C42.8085 89.4847 42.7905 89.3939 42.7905 89.3023V70.9302C42.7905 70.5447 43.1027 70.2325 43.4882 70.2325H70.2324V43.4883C70.2324 43.1028 70.5446 42.7906 70.9301 42.7906H89.3022Z" stroke="#2F414F" stroke-width="7" stroke-linecap="round" stroke-linejoin="round"/>
</g>
</g>
</g>
<defs>
<clipPath id="clip0_168_227">
<rect width="160" height="160" fill="white"/>
</clipPath>
</defs>
</svg>
