<svg width="50" height="50" viewBox="0 0 50 50" fill="none" xmlns="http://www.w3.org/2000/svg">
<rect width="50" height="50" fill="#F5F5F5"/>
<rect width="430" height="932" transform="translate(-190 -376)" fill="#F1F1EF"/>
<path d="M36.1111 13.8889H13.8889V36.1111H36.1111V13.8889Z" fill="#3894A3"/>
<path fill-rule="evenodd" clip-rule="evenodd" d="M22.9167 5.55556V2.08333C22.9167 1.5308 23.1362 1.0009 23.5269 0.610194C23.9176 0.219493 24.4475 0 25 0C25.5525 0 26.0824 0.219493 26.4731 0.610194C26.8638 1.0009 27.0833 1.5308 27.0833 2.08333V5.55556H31.25V2.08333C31.25 1.5308 31.4695 1.0009 31.8602 0.610194C32.2509 0.219493 32.7808 0 33.3333 0C33.8859 0 34.4158 0.219493 34.8065 0.610194C35.1972 1.0009 35.4167 1.5308 35.4167 2.08333V5.55556H36.8056C38.8315 5.55556 40.7745 6.36036 42.2071 7.79293C43.6396 9.2255 44.4444 11.1685 44.4444 13.1944V14.5833H47.9167C48.4692 14.5833 48.9991 14.8028 49.3898 15.1935C49.7805 15.5842 50 16.1141 50 16.6667C50 17.2192 49.7805 17.7491 49.3898 18.1398C48.9991 18.5305 48.4692 18.75 47.9167 18.75H44.4444V22.9167H47.9167C48.4692 22.9167 48.9991 23.1362 49.3898 23.5269C49.7805 23.9176 50 24.4475 50 25C50 25.5525 49.7805 26.0824 49.3898 26.4731C48.9991 26.8638 48.4692 27.0833 47.9167 27.0833H44.4444V31.25H47.9167C48.4692 31.25 48.9991 31.4695 49.3898 31.8602C49.7805 32.2509 50 32.7808 50 33.3333C50 33.8859 49.7805 34.4158 49.3898 34.8065C48.9991 35.1972 48.4692 35.4167 47.9167 35.4167H44.4444V36.8056C44.4444 38.8315 43.6396 40.7745 42.2071 42.2071C40.7745 43.6396 38.8315 44.4444 36.8056 44.4444H35.4167V47.9167C35.4167 48.4692 35.1972 48.9991 34.8065 49.3898C34.4158 49.7805 33.8859 50 33.3333 50C32.7808 50 32.2509 49.7805 31.8602 49.3898C31.4695 48.9991 31.25 48.4692 31.25 47.9167V44.4444H27.0833V47.9167C27.0833 48.4692 26.8638 48.9991 26.4731 49.3898C26.0824 49.7805 25.5525 50 25 50C24.4475 50 23.9176 49.7805 23.5269 49.3898C23.1362 48.9991 22.9167 48.4692 22.9167 47.9167V44.4444H18.75V47.9167C18.75 48.4692 18.5305 48.9991 18.1398 49.3898C17.7491 49.7805 17.2192 50 16.6667 50C16.1141 50 15.5842 49.7805 15.1935 49.3898C14.8028 48.9991 14.5833 48.4692 14.5833 47.9167V44.4444H13.1944C11.1685 44.4444 9.2255 43.6396 7.79293 42.2071C6.36036 40.7745 5.55556 38.8315 5.55556 36.8056V35.4167H2.08333C1.5308 35.4167 1.0009 35.1972 0.610194 34.8065C0.219493 34.4158 0 33.8859 0 33.3333C0 32.7808 0.219493 32.2509 0.610194 31.8602C1.0009 31.4695 1.5308 31.25 2.08333 31.25H5.55556V27.0833H2.08333C1.5308 27.0833 1.0009 26.8638 0.610194 26.4731C0.219493 26.0824 0 25.5525 0 25C0 24.4475 0.219493 23.9176 0.610194 23.5269C1.0009 23.1362 1.5308 22.9167 2.08333 22.9167H5.55556V18.75H2.08333C1.5308 18.75 1.0009 18.5305 0.610194 18.1398C0.219493 17.7491 0 17.2192 0 16.6667C0 16.1141 0.219493 15.5842 0.610194 15.1935C1.0009 14.8028 1.5308 14.5833 2.08333 14.5833H5.55556V13.1944C5.55556 11.1685 6.36036 9.2255 7.79293 7.79293C9.2255 6.36036 11.1685 5.55556 13.1944 5.55556H14.5833V2.08333C14.5833 1.5308 14.8028 1.0009 15.1935 0.610194C15.5842 0.219493 16.1141 0 16.6667 0C17.2192 0 17.7491 0.219493 18.1398 0.610194C18.5305 1.0009 18.75 1.5308 18.75 2.08333V5.55556H22.9167ZM9.72222 13.1944C9.72222 11.2778 11.2778 9.72222 13.1944 9.72222H36.8056C38.7222 9.72222 40.2778 11.2778 40.2778 13.1944V36.8056C40.2778 38.7222 38.7222 40.2778 36.8056 40.2778H13.1944C11.2778 40.2778 9.72222 38.7222 9.72222 36.8056V13.1944Z" fill="#2F414F"/>
</svg>
