<svg width="60" height="60" viewBox="0 0 60 60" fill="none" xmlns="http://www.w3.org/2000/svg">
<path d="M26.1566 22.2649C26.1566 22.2649 33.8541 20.7482 33.175 14.6007C32.0466 4.38405 31.9516 5.91488 31.9516 5.91488L27.3441 6.75655C27.3441 6.75655 29.9999 18.0849 26.1566 22.2649Z" fill="#C7DAD4"/>
<path d="M28.785 5.86328C21.9958 5.86328 16.4933 12.1099 16.4933 19.8158V33.4724H41.0766" fill="#C7DAD4"/>
<path d="M22.3608 37.0833H25.6942V55.4958H22.3608V37.0833ZM34.4442 37.0833H37.7775V50.8158H34.4442V37.0833Z" fill="#D0CFCE"/>
<path d="M28.785 6.30249C28.785 6.30249 41.5542 6.75999 42.0384 17.865C42.8442 36.3192 42.0942 33.6308 42.0942 33.6308L34.3225 33.4725C34.3225 33.4725 35.5209 12.6042 28.785 6.30249Z" fill="#C7DAD4"/>
<path d="M36.1108 33.9934H45.9717V36.5626H36.1108V33.9934Z" fill="#C7DAD4"/>
<path d="M13.6125 33.9934H36.1109V36.5626H13.6125V33.9934Z" fill="#C7DAD4"/>
<path d="M28.785 5.86328C21.9959 5.86328 16.4934 12.1099 16.4934 19.8158V33.4724H41.0767M29.375 5.86328C36.1634 5.86328 41.6667 12.1099 41.6667 19.8158V25.9724M22.3609 37.0833H25.6942V55.4958H22.3609V37.0833ZM34.4442 37.0833H37.7775V50.8158H34.4442V37.0833ZM13.3334 37.0833H46.6667V33.4724H13.3334V37.0833Z" stroke="black" stroke-width="2" stroke-miterlimit="10" stroke-linecap="round" stroke-linejoin="round"/>
</svg>
