<svg width="46" height="60" viewBox="0 0 46 60" fill="none" xmlns="http://www.w3.org/2000/svg">
<g opacity="0.8">
<path fill-rule="evenodd" clip-rule="evenodd" d="M11.4516 10.9091C11.4516 8.01582 12.6581 5.24105 14.8057 3.1952C16.9533 1.14935 19.8661 0 22.9032 0C25.9404 0 28.8531 1.14935 31.0007 3.1952C33.1483 5.24105 34.3548 8.01582 34.3548 10.9091V27.2727C34.3548 30.166 33.1483 32.9408 31.0007 34.9866C28.8531 37.0325 25.9404 38.1818 22.9032 38.1818C19.8661 38.1818 16.9533 37.0325 14.8057 34.9866C12.6581 32.9408 11.4516 30.166 11.4516 27.2727V10.9091ZM5.72581 24.5455C5.72581 23.8221 5.42418 23.1284 4.88728 22.617C4.35038 22.1055 3.62219 21.8182 2.8629 21.8182C2.10361 21.8182 1.37542 22.1055 0.838525 22.617C0.301627 23.1284 0 23.8221 0 24.5455V27.2727C9.46873e-05 32.5871 2.03606 37.7188 5.72582 41.7048C9.41557 45.6907 14.5055 48.2569 20.0403 48.9218V57.2727C20.0403 57.996 20.3419 58.6897 20.8788 59.2012C21.4157 59.7127 22.1439 60 22.9032 60C23.6625 60 24.3907 59.7127 24.9276 59.2012C25.4645 58.6897 25.7661 57.996 25.7661 57.2727V48.9218C31.301 48.2569 36.3909 45.6907 40.0806 41.7048C43.7704 37.7188 45.8064 32.5871 45.8064 27.2727V24.5455C45.8064 23.8221 45.5048 23.1284 44.9679 22.617C44.431 22.1055 43.7028 21.8182 42.9435 21.8182C42.1843 21.8182 41.4561 22.1055 40.9192 22.617C40.3823 23.1284 40.0806 23.8221 40.0806 24.5455V27.2727C40.0806 31.6126 38.2709 35.7748 35.0495 38.8436C31.8281 41.9123 27.459 43.6364 22.9032 43.6364C18.3475 43.6364 13.9783 41.9123 10.757 38.8436C7.53557 35.7748 5.72581 31.6126 5.72581 27.2727V24.5455Z" fill="#2F414F"/>
</g>
</svg>
