<svg width="59" height="60" viewBox="0 0 59 60" fill="none" xmlns="http://www.w3.org/2000/svg">
<path d="M36.6279 7.5H49.4477V11.25H36.6279V7.5Z" fill="#2F414F"/>
<path d="M36.6279 18.75H54.9419V22.5H36.6279V18.75Z" fill="#2F414F"/>
<path d="M36.6279 30H49.4477V33.75H36.6279V30Z" fill="#2F414F"/>
<path d="M21.9768 43.125C21.9768 44.6168 21.3979 46.0476 20.3676 47.1025C19.3372 48.1574 17.9397 48.75 16.4826 48.75C15.0254 48.75 13.628 48.1574 12.5976 47.1025C11.5673 46.0476 10.9884 44.6168 10.9884 43.125H21.9768Z" fill="#2F414F"/>
<path d="M54.9419 41.25H29.1543C28.765 38.5 27.5345 35.9471 25.6395 33.9578V13.125C25.6395 10.6386 24.6748 8.25403 22.9575 6.49587C21.2402 4.73772 18.9111 3.75 16.4826 3.75C14.054 3.75 11.7249 4.73772 10.0076 6.49587C8.29033 8.25403 7.32558 10.6386 7.32558 13.125V33.9578C5.9093 35.4378 4.8557 37.2404 4.25111 39.2178C3.64652 41.1951 3.50814 43.291 3.84732 45.3337C4.1865 47.3764 4.99357 49.3077 6.20242 50.9694C7.41126 52.6312 8.98747 53.976 10.8019 54.8938C12.6163 55.8116 14.6173 56.2762 16.641 56.2495C18.6646 56.2228 20.6532 55.7056 22.444 54.7403C24.2347 53.775 25.7766 52.389 26.9432 50.696C28.1099 49.0029 28.8681 47.0509 29.1558 45H54.9419V41.25ZM16.4826 52.5C14.6287 52.5026 12.8179 51.9282 11.2902 50.8531C9.76243 49.778 8.58993 48.2529 7.92811 46.48C7.26629 44.7071 7.1464 42.7701 7.58435 40.9258C8.02229 39.0816 8.99738 37.4171 10.3803 36.1532L10.9884 35.5939V13.125C10.9884 11.6332 11.5672 10.2024 12.5976 9.14752C13.6279 8.09263 15.0254 7.5 16.4826 7.5C17.9397 7.5 19.3372 8.09263 20.3675 9.14752C21.3979 10.2024 21.9767 11.6332 21.9767 13.125V35.5939L22.5848 36.1532C23.9677 37.4171 24.9428 39.0816 25.3808 40.9258C25.8187 42.7701 25.6988 44.7071 25.037 46.48C24.3752 48.2529 23.2027 49.778 21.6749 50.8531C20.1472 51.9282 18.3364 52.5026 16.4826 52.5Z" fill="#2F414F"/>
</svg>
