<svg width="47" height="60" viewBox="0 0 47 60" fill="none" xmlns="http://www.w3.org/2000/svg">
<path d="M10.5374 60V0H36.2136V60H10.5374Z" fill="#2F414F"/>
<path d="M10.5392 9.84912V-7.62939e-05H36.2154V9.84912H10.5392Z" fill="#C7DAD4"/>
<path d="M10.5374 20.2676V15.867H36.2136V20.2676H10.5374Z" fill="#C7DAD4"/>
<path d="M10.5374 60V50.1508H36.2136V60H10.5374Z" fill="#C7DAD4"/>
<path d="M23.377 7.78285C24.9185 7.78285 26.1681 6.50346 26.1681 4.92524C26.1681 3.34702 24.9185 2.06763 23.377 2.06763C21.8355 2.06763 20.5858 3.34702 20.5858 4.92524C20.5858 6.50346 21.8355 7.78285 23.377 7.78285Z" fill="#3894A3"/>
<path d="M23.3769 47.055C29.2986 47.055 34.0991 42.1402 34.0991 36.0775C34.0991 30.0149 29.2986 25.1001 23.3769 25.1001C17.4553 25.1001 12.6548 30.0149 12.6548 36.0775C12.6548 42.1402 17.4553 47.055 23.3769 47.055Z" fill="#C7DAD4"/>
<path d="M0 30.9365H46.754V41.219H0V30.9365Z" fill="#3894A3"/>
<path d="M13.9604 37.7884C14.8833 37.7884 15.6315 37.0224 15.6315 36.0776C15.6315 35.1327 14.8833 34.3667 13.9604 34.3667C13.0375 34.3667 12.2893 35.1327 12.2893 36.0776C12.2893 37.0224 13.0375 37.7884 13.9604 37.7884Z" fill="#3894A3"/>
<path d="M8.86798 37.7882C9.79089 37.7882 10.5391 37.0222 10.5391 36.0773C10.5391 35.1324 9.79089 34.3665 8.86798 34.3665C7.94507 34.3665 7.1969 35.1324 7.1969 36.0773C7.1969 37.0222 7.94507 37.7882 8.86798 37.7882Z" fill="#3894A3"/>
<path d="M3.77508 37.7884C4.69799 37.7884 5.44616 37.0224 5.44616 36.0776C5.44616 35.1327 4.69799 34.3667 3.77508 34.3667C2.85217 34.3667 2.104 35.1327 2.104 36.0776C2.104 37.0224 2.85217 37.7884 3.77508 37.7884Z" fill="#3894A3"/>
<path d="M42.9794 37.7882C43.9023 37.7882 44.6505 37.0222 44.6505 36.0773C44.6505 35.1324 43.9023 34.3665 42.9794 34.3665C42.0565 34.3665 41.3083 35.1324 41.3083 36.0773C41.3083 37.0222 42.0565 37.7882 42.9794 37.7882Z" fill="#3894A3"/>
<path d="M37.8862 37.7882C38.8091 37.7882 39.5572 37.0222 39.5572 36.0773C39.5572 35.1324 38.8091 34.3665 37.8862 34.3665C36.9633 34.3665 36.2151 35.1324 36.2151 36.0773C36.2151 37.0222 36.9633 37.7882 37.8862 37.7882Z" fill="#3894A3"/>
<path d="M32.7921 37.7884C33.715 37.7884 34.4631 37.0224 34.4631 36.0776C34.4631 35.1327 33.715 34.3667 32.7921 34.3667C31.8691 34.3667 31.121 35.1327 31.121 36.0776C31.121 37.0224 31.8691 37.7884 32.7921 37.7884Z" fill="#3894A3"/>
<path d="M23.3772 43.4606C27.3598 43.4606 30.5884 40.1552 30.5884 36.0777C30.5884 32.0003 27.3598 28.6948 23.3772 28.6948C19.3946 28.6948 16.166 32.0003 16.166 36.0777C16.166 40.1552 19.3946 43.4606 23.3772 43.4606Z" fill="#3894A3"/>
<path d="M23.3773 41.219C26.1507 41.219 28.3989 38.9172 28.3989 36.0778C28.3989 33.2383 26.1507 30.9365 23.3773 30.9365C20.6039 30.9365 18.3556 33.2383 18.3556 36.0778C18.3556 38.9172 20.6039 41.219 23.3773 41.219Z" fill="#F1F1EF"/>
<path d="M23.3772 39.2585C25.0932 39.2585 26.4842 37.8343 26.4842 36.0775C26.4842 34.3207 25.0932 32.8965 23.3772 32.8965C21.6612 32.8965 20.2701 34.3207 20.2701 36.0775C20.2701 37.8343 21.6612 39.2585 23.3772 39.2585Z" fill="#3894A3"/>
</svg>
